<svg width="245" height="69" viewBox="0 0 245 69" fill="none" xmlns="http://www.w3.org/2000/svg">
<rect width="245" height="69" fill="#0F0C0C"/>
<path d="M25.1875 5.53125C28.3125 5.71875 30.9375 5.875 33.0625 6C35.25 6.0625 37.0625 6.125 38.5 6.1875C40.125 6.25 41.5 6.25 42.625 6.1875C43.75 6.125 45.2812 5.96875 47.2188 5.71875C48.8438 5.53125 51 5.25 53.6875 4.875C56.4375 4.4375 59.8438 3.875 63.9062 3.1875C62.4688 4.625 61.3438 5.9375 60.5312 7.125C59.7812 8.25 59.1875 9.21875 58.75 10.0312C58.25 11.0312 57.9062 11.875 57.7188 12.5625C57.5938 13.1875 57.7188 14.75 58.0938 17.25C58.4688 19.75 59 22.7188 59.6875 26.1562C60.375 29.5312 61.125 33.1562 61.9375 37.0312C62.75 40.8438 63.5625 44.4375 64.375 47.8125C65.1875 51.125 65.9062 53.9688 66.5312 56.3438C67.2188 58.6562 67.7188 60.0312 68.0312 60.4688C68.9688 61.7812 69.5625 62.6562 69.8125 63.0938C70.0625 63.4688 70.5 63.8125 71.125 64.125C71.375 64.25 71.7812 64.4375 72.3438 64.6875C72.8438 64.9375 73.5 65.25 74.3125 65.625C75.1875 66 76.2812 66.4375 77.5938 66.9375C75.1562 67.0625 73.0625 67.1562 71.3125 67.2188C69.5625 67.2188 68.125 67.25 67 67.3125C65.6875 67.375 64.5625 67.4375 63.625 67.5C62.6875 67.5 61.5625 67.5625 60.25 67.6875C59.125 67.8125 57.6562 67.9375 55.8438 68.0625C54.0938 68.1875 52.0312 68.3125 49.6562 68.4375C50.9062 67.5625 51.9062 66.7812 52.6562 66.0938C53.4688 65.3438 54.0938 64.7188 54.5312 64.2188C55.0312 63.5938 55.375 63.0312 55.5625 62.5312C55.6875 61.9688 55.7812 61.125 55.8438 60C55.9062 59 55.9062 57.6875 55.8438 56.0625C55.7812 54.375 55.625 52.1875 55.375 49.5L30.7188 52.0312C30.0938 53.0938 29.625 54.0312 29.3125 54.8438C29 55.5938 28.7812 56.25 28.6562 56.8125C28.4688 57.5 28.4062 58.0625 28.4688 58.5C28.5938 59 28.8125 59.5938 29.125 60.2812C29.4375 60.9062 29.875 61.6562 30.4375 62.5312C31.0625 63.3438 31.9688 64.3125 33.1562 65.4375C31.5938 65.375 30 65.3438 28.375 65.3438C26.75 65.3438 25.25 65.375 23.875 65.4375C22.25 65.5 20.6562 65.5625 19.0938 65.625C17.5312 65.6875 15.75 65.7812 13.75 65.9062C12.0625 66.0312 10.0938 66.1875 7.84375 66.375C5.53125 66.5 3.0625 66.6875 0.4375 66.9375C2.0625 66.1875 3.4375 65.4375 4.5625 64.6875C5.6875 63.875 6.625 63.125 7.375 62.4375C8.25 61.6875 9 60.9688 9.625 60.2812C10.0625 59.6562 10.9375 58.2188 12.25 55.9688C13.5625 53.6562 15.0312 50.9375 16.6562 47.8125C18.3438 44.6875 20.0938 41.3438 21.9062 37.7812C23.7812 34.2188 25.4688 30.875 26.9688 27.75C28.4688 24.5625 29.6875 21.8125 30.625 19.5C31.5625 17.1875 32.0312 15.6875 32.0312 15C31.9062 14.1875 31.5938 13.2812 31.0938 12.2812C30.6562 11.4062 29.9688 10.4062 29.0312 9.28125C28.1562 8.15625 26.875 6.90625 25.1875 5.53125ZM54.25 42.5625C53.875 40.375 53.5312 38.5 53.2188 36.9375C52.9062 35.3125 52.6562 33.9688 52.4688 32.9062C52.2188 31.6562 52.0312 30.5625 51.9062 29.625C51.7188 28.75 51.5 27.625 51.25 26.25C51 25.0625 50.6875 23.5938 50.3125 21.8438C50 20.0312 49.5938 17.875 49.0938 15.375C45.5312 22.5 42.75 28.0312 40.75 31.9688C38.8125 35.8438 37.4062 38.6875 36.5312 40.5C35.4688 42.625 34.875 43.875 34.75 44.25L54.25 42.5625ZM74.5938 1.03125C76.4062 1.34375 78 1.5625 79.375 1.6875C80.8125 1.8125 82 1.90625 82.9375 1.96875C84.0625 2.03125 85.0312 2.0625 85.8438 2.0625C86.6562 2.0625 87.8125 2 89.3125 1.875C90.5625 1.75 92.1875 1.59375 94.1875 1.40625C96.25 1.21875 98.7812 0.90625 101.781 0.46875C100.906 0.71875 100.094 1.4375 99.3438 2.625C98.6562 3.75 98.0312 4.96875 97.4688 6.28125C96.7812 7.84375 96.1875 9.5625 95.6875 11.4375C95.25 13.125 94.6875 15.4375 94 18.375C93.375 21.3125 92.75 24.5 92.125 27.9375C91.5625 31.375 91.125 34.875 90.8125 38.4375C90.5 41.9375 90.4375 45.1562 90.625 48.0938C90.875 51.0312 91.4688 53.4688 92.4062 55.4062C93.3438 57.2812 94.7812 58.2812 96.7188 58.4062C99.6562 58.6562 102.094 58.6875 104.031 58.5C106.031 58.25 107.656 57.9062 108.906 57.4688C110.156 57.0312 111.125 56.5312 111.812 55.9688C112.5 55.3438 113.031 54.75 113.406 54.1875C114.406 52.75 115.438 50.9062 116.5 48.6562C117.562 46.4062 118.5 44.25 119.312 42.1875C120.188 40.125 120.906 38.375 121.469 36.9375C122.031 35.5 122.312 34.8125 122.312 34.875C122.312 35 122.281 35.7188 122.219 37.0312C122.219 38.2812 122.188 39.8125 122.125 41.625C122.125 43.375 122.094 45.2188 122.031 47.1562C122.031 49.0938 122 50.75 121.938 52.125C121.875 53.25 121.812 54.5 121.75 55.875C121.688 57.0625 121.625 58.4688 121.562 60.0938C121.562 61.7188 121.5 63.5 121.375 65.4375C118.75 65.25 116.25 65.125 113.875 65.0625C111.5 65 109.406 64.9688 107.594 64.9688C105.469 64.9688 103.5 65 101.688 65.0625C99.75 65.125 97.5 65.2188 94.9375 65.3438C92.75 65.4688 90.0312 65.625 86.7812 65.8125C83.5312 65.9375 79.7812 66.125 75.5312 66.375C76.0312 65.5 76.4375 64.6875 76.75 63.9375C77.125 63.1875 77.4062 62.5625 77.5938 62.0625C77.8438 61.4375 78 60.9062 78.0625 60.4688C78.4375 58.4688 78.75 55.9375 79 52.875C79.25 49.75 79.4375 46.4375 79.5625 42.9375C79.75 39.4375 79.8438 35.875 79.8438 32.25C79.9062 28.5625 79.9062 25.1562 79.8438 22.0312C79.7812 18.9062 79.6562 16.1875 79.4688 13.875C79.3438 11.5625 79.1562 9.96875 78.9062 9.09375C78.5938 8.09375 78.2188 7.09375 77.7812 6.09375C77.4062 5.21875 76.9375 4.34375 76.375 3.46875C75.875 2.53125 75.2812 1.71875 74.5938 1.03125ZM118 5.34375C120.75 5.46875 123.094 5.5625 125.031 5.625C126.969 5.6875 128.562 5.75 129.812 5.8125C131.312 5.875 132.531 5.9375 133.469 6C134.469 6.0625 135.719 6.09375 137.219 6.09375C139.781 6.09375 143.406 5.90625 148.094 5.53125C147.094 6.03125 146.312 6.59375 145.75 7.21875C145.188 7.78125 144.75 8.34375 144.438 8.90625C144.062 9.59375 143.781 10.25 143.594 10.875C143.469 11.625 143.75 12.7812 144.438 14.3438C144.938 15.6562 145.844 17.4375 147.156 19.6875C148.469 21.9375 150.406 24.8438 152.969 28.4062C156.031 23.9062 158.406 20.375 160.094 17.8125C161.781 15.25 163.031 13.3125 163.844 12C164.781 10.4375 165.344 9.40625 165.531 8.90625C165.469 8.59375 165.219 8.15625 164.781 7.59375C164.406 7.09375 163.781 6.5 162.906 5.8125C162.094 5.0625 160.875 4.15625 159.25 3.09375C161.812 3.46875 163.938 3.75 165.625 3.9375C167.375 4.125 168.781 4.25 169.844 4.3125C171.094 4.375 172.125 4.375 172.938 4.3125C173.75 4.25 174.938 4.1875 176.5 4.125C177.812 4.0625 179.562 4 181.75 3.9375C184 3.875 186.875 3.78125 190.375 3.65625C189 4.34375 187.812 5 186.812 5.625C185.812 6.25 184.969 6.8125 184.281 7.3125C183.469 7.9375 182.75 8.46875 182.125 8.90625C181.375 9.65625 180 11.1875 178 13.5C176.312 15.5 173.906 18.4375 170.781 22.3125C167.656 26.125 163.469 31.3125 158.219 37.875C162.469 42.375 165.906 45.9375 168.531 48.5625C171.156 51.1875 173.219 53.1875 174.719 54.5625C176.469 56.1875 177.75 57.2812 178.562 57.8438C179.312 58.2812 180.344 58.8438 181.656 59.5312C182.781 60.1562 184.25 60.9375 186.062 61.875C187.875 62.75 190.188 63.8125 193 65.0625H177.344C176.031 65.0625 174.438 65.125 172.562 65.25C170.938 65.375 168.938 65.5 166.562 65.625C164.188 65.75 161.406 65.9688 158.219 66.2812C159.344 65.5938 160.156 64.9375 160.656 64.3125C161.219 63.625 161.594 63.0312 161.781 62.5312C162.031 61.9688 162.062 61.4688 161.875 61.0312C161.562 60.4062 161.031 59.4688 160.281 58.2188C159.594 57.1562 158.625 55.6562 157.375 53.7188C156.125 51.7812 154.406 49.2188 152.219 46.0312C149.719 48.7188 147.781 50.9688 146.406 52.7812C145.094 54.5312 144.094 55.9375 143.406 57C142.656 58.25 142.156 59.25 141.906 60C141.906 60.6875 142.062 61.375 142.375 62.0625C142.688 62.6875 143.188 63.375 143.875 64.125C144.625 64.875 145.719 65.5938 147.156 66.2812L119.406 67.5C121.656 65.9375 123.531 64.5312 125.031 63.2812C126.531 61.9688 127.75 60.875 128.688 60C129.75 58.9375 130.594 58 131.219 57.1875C131.844 56.25 132.812 54.875 134.125 53.0625C135.188 51.5 136.656 49.4062 138.531 46.7812C140.469 44.1562 142.938 40.7812 145.938 36.6562C142.625 31.3438 139.938 27.125 137.875 24C135.875 20.875 134.25 18.4688 133 16.7812C131.562 14.8438 130.5 13.5 129.812 12.75C129.188 12.1875 128.312 11.5625 127.188 10.875C126.25 10.25 125.031 9.5 123.531 8.625C122.031 7.6875 120.188 6.59375 118 5.34375ZM180.531 2.53125C183.344 3.03125 185.656 3.375 187.469 3.5625C189.281 3.75 190.75 3.90625 191.875 4.03125C193.188 4.15625 194.219 4.1875 194.969 4.125H197.781C198.781 4.125 200.031 4.125 201.531 4.125C203.094 4.0625 205.031 4.03125 207.344 4.03125C208.656 7.09375 209.844 9.90625 210.906 12.4688C212.031 15.0312 212.969 17.2188 213.719 19.0312C214.594 21.2188 215.406 23.1875 216.156 24.9375C217.031 27.125 217.969 29.5312 218.969 32.1562C219.969 34.7812 220.875 37.25 221.688 39.5625C222.562 41.875 223.281 43.7812 223.844 45.2812C224.406 46.7812 224.688 47.4688 224.688 47.3438C224.688 47.2812 224.719 46.6562 224.781 45.4688C224.844 44.2188 224.906 42.6875 224.969 40.875C225.031 39 225.094 36.9688 225.156 34.7812C225.281 32.5312 225.344 30.375 225.344 28.3125C225.406 26.1875 225.438 24.25 225.438 22.5C225.438 20.75 225.375 19.4375 225.25 18.5625C225.062 17.5 224.688 16.2812 224.125 14.9062C223.625 13.7188 222.938 12.3125 222.062 10.6875C221.188 9 219.969 7.09375 218.406 4.96875C220.969 5.03125 223.062 5.0625 224.688 5.0625C226.312 5.0625 227.625 5.0625 228.625 5.0625C229.75 5.0625 230.625 5.03125 231.25 4.96875C232.062 4.96875 233.062 4.90625 234.25 4.78125C235.312 4.65625 236.625 4.5625 238.188 4.5C239.812 4.375 241.812 4.21875 244.188 4.03125C242.812 5.28125 241.719 6.46875 240.906 7.59375C240.094 8.71875 239.438 9.71875 238.938 10.5938C238.375 11.5938 238 12.5312 237.812 13.4062C237.562 14.5312 237.344 16.375 237.156 18.9375C237.031 21.4375 236.875 24.25 236.688 27.375C236.562 30.5 236.438 33.75 236.312 37.125C236.188 40.5 236.062 43.5938 235.938 46.4062C235.938 48.5312 235.875 50.8125 235.75 53.25C235.625 55.3125 235.5 57.6562 235.375 60.2812C235.25 62.8438 235.094 65.4375 234.906 68.0625L226.562 68.25C224.125 63.9375 222.062 60.25 220.375 57.1875C218.75 54.0625 217.406 51.5 216.344 49.5C215.156 47.1875 214.156 45.25 213.344 43.6875C212.656 42.1875 211.75 40.4688 210.625 38.5312C209.688 36.9062 208.5 34.9062 207.062 32.5312C205.688 30.1562 204.031 27.4375 202.094 24.375C201.906 28.6875 201.812 32.375 201.812 35.4375C201.875 38.4375 201.969 40.9375 202.094 42.9375C202.281 45.25 202.5 47.1875 202.75 48.75C203.062 50.25 203.5 51.9375 204.062 53.8125C204.562 55.4375 205.156 57.3438 205.844 59.5312C206.594 61.7188 207.5 64.1875 208.562 66.9375C204.875 66.75 202.125 66.6562 200.312 66.6562H197.5C196.625 66.6562 195.438 66.75 193.938 66.9375C192.688 67.0625 190.969 67.25 188.781 67.5C186.656 67.75 184 68.0938 180.812 68.5312C182.312 66.7188 183.5 65.0625 184.375 63.5625C185.312 62 186.031 60.6875 186.531 59.625C187.156 58.375 187.594 57.2812 187.844 56.3438C188.031 55.3438 188.156 53.625 188.219 51.1875C188.281 48.6875 188.281 45.875 188.219 42.75C188.219 39.5625 188.156 36.2188 188.031 32.7188C187.969 29.2188 187.875 25.9688 187.75 22.9688C187.625 19.9688 187.469 17.4062 187.281 15.2812C187.156 13.1562 187.062 11.8438 187 11.3438C186.812 10.5312 186.438 9.65625 185.875 8.71875C185.375 7.90625 184.719 7 183.906 6C183.094 4.9375 181.969 3.78125 180.531 2.53125Z" fill="#DCE8FF"/>
</svg>
